<svg xmlns="http://www.w3.org/2000/svg" xmlns:xlink="http://www.w3.org/1999/xlink" width="512px" height="512px" x="0px" y="0px" class="" style="enable-background:new 0 0 444.815 444.815" version="1.1" viewBox="0 0 444.815 444.815" xml:space="preserve">
    <g id="arrowRight">
		<path fill="#0a4c8b" d="M421.976,196.712L236.111,10.848C228.884,3.615,220.219,0,210.131,0c-9.9,0-18.464,3.615-25.697,10.848L163.023,32.26   c-7.234,6.853-10.85,15.418-10.85,25.697c0,10.277,3.616,18.842,10.85,25.697l83.653,83.937H45.677   c-9.895,0-17.937,3.568-24.123,10.707s-9.279,15.752-9.279,25.837v36.546c0,10.088,3.094,18.698,9.279,25.837   s14.228,10.704,24.123,10.704h200.995L163.02,360.88c-7.234,7.228-10.85,15.89-10.85,25.981c0,10.089,3.616,18.75,10.85,25.978   l21.411,21.412c7.426,7.043,15.99,10.564,25.697,10.564c9.899,0,18.562-3.521,25.981-10.564l185.864-185.864   c7.043-7.043,10.567-15.701,10.567-25.981C432.54,211.939,429.016,203.37,421.976,196.712z" class="active-path" data-old_color="#0a4c8b" data-original="#000000"/>
	</g>
    <g id="doc">
        <path d="M441.412,140.235v338.781c0,18.219-14.778,32.983-32.983,32.983H103.572
        c-18.219,0-32.983-14.764-32.983-32.983V32.983C70.588,14.764,85.352,0,103.572,0h197.605L441.412,140.235z" style="fill:#518EF8"/>
        <g>
            <rect width="189.626" height="21.071" x="161.18" y="257.054" style="fill:#FFFFFF"/>
            <rect width="189.626" height="21.071" x="161.18" y="304.112" style="fill:#FFFFFF"/>
            <rect width="189.626" height="21.071" x="161.18" y="351.171" style="fill:#FFFFFF"/>
            <rect width="134.855" height="21.071" x="161.18" y="398.23" style="fill:#FFFFFF"/>
        </g>
        <polygon points="320.31,137.188 441.412,187.079 441.412,140.235 372.751,119.962 " style="fill:#3A5BBC"/>
        <path d="M441.412,140.235H334.16c-18.22,0-32.983-14.764-32.983-32.983V0L441.412,140.235z" style="fill:#ACD1FC"/>
    </g>
    <g id="excel">
		<path fill="#00a956" d="M408,0H51C22.95,0,0,22.95,0,51v76.5l0,0V408c0,28.05,22.95,51,51,51h357c28.05,0,51-22.95,51-51V51    C459,22.95,436.05,0,408,0z M408,204H204v204h-51V204H51v-51h102V51h51v102h204V204z" class="active-path" data-old_color="#00a956" data-original="#000000"/>
	</g>
    <g id="download">
		<path fill="#dddddd" d="M143.027,0C64.04,0,0,64.04,0,143.027c0,78.996,64.04,143.027,143.027,143.027   s143.027-64.031,143.027-143.027C286.054,64.049,222.014,0,143.027,0z M143.027,259.236c-64.183,0-116.209-52.026-116.209-116.209   s52.026-116.2,116.209-116.2s116.209,52.017,116.209,116.2S207.21,259.236,143.027,259.236z M194.704,134.088h-24.86V89.392   c0-4.934-3.996-8.939-8.939-8.939h-35.757c-4.934,0-8.939,4.005-8.939,8.939v44.696H91.341c-9.699,0-13.668,6.463-8.823,14.338   l51.686,51.096c4.845,7.884,12.783,7.884,17.637,0l51.677-51.096C208.381,140.551,204.412,134.088,194.704,134.088z" class="active-path" data-old_color="#dddddd" data-original="#3DB39E"/>
	</g>
    <g id="pdf">
        <path d="M38.658,0h164.23l87.049,86.711v203.227c0,10.679-8.659,19.329-19.329,19.329H38.658
		c-10.67,0-19.329-8.65-19.329-19.329V19.329C19.329,8.65,27.989,0,38.658,0z" style="fill:#E2574C"/>
        <path d="M289.658,86.981h-67.372c-10.67,0-19.329-8.659-19.329-19.329V0.193L289.658,86.981z" style="fill:#B53629"/>
        <path d="M217.434,146.544c3.238,0,4.823-2.822,4.823-5.557c0-2.832-1.653-5.567-4.823-5.567h-18.44
		c-3.605,0-5.615,2.986-5.615,6.282v45.317c0,4.04,2.3,6.282,5.412,6.282c3.093,0,5.403-2.242,5.403-6.282v-12.438h11.153
		c3.46,0,5.19-2.832,5.19-5.644c0-2.754-1.73-5.49-5.19-5.49h-11.153v-16.903C204.194,146.544,217.434,146.544,217.434,146.544z
		 M155.107,135.42h-13.492c-3.663,0-6.263,2.513-6.263,6.243v45.395c0,4.629,3.74,6.079,6.417,6.079h14.159
		c16.758,0,27.824-11.027,27.824-28.047C183.743,147.095,173.325,135.42,155.107,135.42z M155.755,181.946h-8.225v-35.334h7.413
		c11.221,0,16.101,7.529,16.101,17.918C171.044,174.253,166.25,181.946,155.755,181.946z M106.33,135.42H92.964
		c-3.779,0-5.886,2.493-5.886,6.282v45.317c0,4.04,2.416,6.282,5.663,6.282s5.663-2.242,5.663-6.282v-13.231h8.379
		c10.341,0,18.875-7.326,18.875-19.107C125.659,143.152,117.425,135.42,106.33,135.42z M106.108,163.158h-7.703v-17.097h7.703
		c4.755,0,7.78,3.711,7.78,8.553C113.878,159.447,110.863,163.158,106.108,163.158z" style="fill:#FFFFFF"/>
    </g>
</svg>
