<?xml version="1.0" encoding="UTF-8"?>
<svg xmlns="http://www.w3.org/2000/svg" xmlns:xlink="http://www.w3.org/1999/xlink" width="96px" height="96px" viewBox="0 0 96 96" version="1.1">
<g id="surface48071">
<path style=" stroke:none;fill-rule:nonzero;fill:rgb(100%,42.745098%,0%);fill-opacity:1;" d="M 80 90 L 16 90 L 16 6 L 60 6 L 80 26 Z M 80 90 "/>
<path style=" stroke:none;fill-rule:nonzero;fill:rgb(100%,95.294118%,87.843137%);fill-opacity:1;" d="M 77 28 L 58 28 L 58 9 Z M 77 28 "/>
<path style=" stroke:none;fill-rule:nonzero;fill:rgb(100%,100%,100%);fill-opacity:1;" d="M 44.105469 61.316406 L 44.105469 70 L 37.933594 70 L 37.933594 44.40625 L 48.144531 44.40625 C 50.105469 44.40625 51.835938 44.765625 53.339844 45.488281 C 54.847656 46.207031 56.011719 47.234375 56.839844 48.5625 C 57.664062 49.894531 58.078125 51.402344 58.078125 53.089844 C 58.078125 55.585938 57.183594 57.582031 55.398438 59.074219 C 53.609375 60.570312 51.15625 61.316406 48.039062 61.316406 Z M 44.105469 56.550781 L 48.144531 56.550781 C 49.34375 56.550781 50.253906 56.253906 50.878906 55.65625 C 51.507812 55.058594 51.820312 54.214844 51.820312 53.125 C 51.820312 51.929688 51.496094 50.972656 50.855469 50.257812 C 50.210938 49.542969 49.328125 49.179688 48.21875 49.167969 L 44.105469 49.167969 Z M 44.105469 56.550781 "/>
</g>
</svg>
